<?xml version="1.0" encoding="utf-8"?>
<!-- Generator: Adobe Illustrator 22.1.0, SVG Export Plug-In . SVG Version: 6.00 Build 0)  -->
<svg version="1.1" id="Capa_1" xmlns="http://www.w3.org/2000/svg" xmlns:xlink="http://www.w3.org/1999/xlink" x="0px" y="0px"
	 viewBox="0 0 263 77" style="enable-background:new 0 0 263 77;" xml:space="preserve">
<style type="text/css">
	.st0{fill:#2D2D2D;}
	.st1{fill:#EA5252;}
</style>
<g>
	<path class="st0" d="M250.4,77H12.6C5.6,77,0,71.4,0,64.4V12.6C0,5.6,5.6,0,12.6,0h237.8c7,0,12.6,5.6,12.6,12.6v51.8
		C263,71.4,257.4,77,250.4,77z"/>
</g>
<g>
	<path class="st1" d="M49.7,22.9v1.4c0,0.6-0.1,1-0.4,1.1c-0.3,0.1-1.2,0.5-2.8,1.2s-3.2,1.4-4.7,2.3c0.6-0.7,1.1-1.3,1.6-1.7
		c0.5-0.4,1.1-0.8,1.9-1.3c-0.7-0.3-1.7-0.4-2.9-0.4c-1.9,0-4,0.4-6.3,1c-2.3,0.6-4.1,1.5-5.7,2.4S28,30.6,28,31.2
		c0,0.3,0.2,0.6,0.7,0.8c0.5,0.2,1.2,0.4,2.3,0.5c1.1,0.2,2.4,0.2,3.9,0.3s3.5,0.1,5.8,0.1c1.7,0,2.8,0.1,3.3,0.2
		c0.5,0.1,0.7,0.4,0.7,0.8c0,0.5-0.3,1.1-0.9,1.8c-0.6,0.7-1.3,1-2.3,1.1c-1.5,0.2-2.6,0.3-3.5,0.5c-0.9,0.2-1.9,0.4-3.1,0.7
		c-1.2,0.3-2.5,0.9-3.9,1.5c-2.1,1-3.8,2-5,3s-1.8,1.9-1.8,2.7c0,0.7,0.4,1.2,1.3,1.6s2.1,0.5,3.7,0.5c5.5,0,11.2-2.2,16.9-6.6
		c0,1.3-0.1,2.5-0.5,3.5c-0.4,1-1.1,2-2.2,2.9c-0.9,0.8-2.3,1.5-4.1,2.3s-3.8,1.3-5.9,1.7c-2.1,0.3-4.1,0.6-6,0.6
		c-2.2,0-4-0.4-5.4-1.4s-2.1-2.1-2.1-3.6c0-1.1,0.3-2.2,1-3.2c0.7-1.1,1.7-2.1,3.2-3.2c1.5-1,3.2-1.9,5.4-2.7
		c2.2-0.8,4.7-1.4,7.5-1.9c0.4-0.1,0.6-0.2,0.6-0.4c0-0.2-0.2-0.3-0.7-0.3s-1.4-0.1-2.6-0.1s-2.4-0.1-3.4-0.2s-2-0.3-3.1-0.5
		s-2-0.8-2.6-1.6c-0.6-0.8-0.9-1.6-0.9-2.5c0-1.1,0.5-2.4,1.5-3.6c1-1.2,2.3-2.3,4.1-3.2s3.9-1.8,6.4-2.3s5.3-0.9,8.2-0.9
		c1.7,0,2.9,0.1,3.6,0.3s1.1,0.4,1.2,0.7C49.4,21.3,49.7,22.1,49.7,22.9z"/>
	<path class="st1" d="M71.7,42.8c-0.4-0.7-1-1.5-1.7-2c-0.8-0.5-1.6-1.1-2.5-1.5s-1.9-0.6-3-0.8c-3.1-0.5-5.9-1.6-8.4-3.3
		c-0.2-0.1-0.5-0.4-0.8-0.8c-0.3-0.4-0.4-0.8-0.4-1.3c0-1.5,0.2-3,0.7-4.4c0.5-1.4,1.1-2.7,1.7-3.4c1.2-1.4,3.1-2.5,6-3.6
		c2.9-1.1,6.1-1.6,9.8-1.6c2.2,0,3.8,0.2,5,0.5s1.7,1,1.7,1.7c0,1.3-0.2,2.2-0.5,2.9c-0.3,0.6-0.7,1.2-1,1.4s-1,0.5-1.8,1
		c-1,0.3-1.7,0.7-2.5,1.2c-0.8,0.4-1.2,0.7-1.8,1.2s-0.8,0.5-1,0.5s-0.2-0.1-0.2-0.2c0-0.3,0.3-0.7,0.8-1.3s1.2-1.1,2-1.5
		c0.9-0.5,1.2-0.7,1.2-1c0-0.2-0.5-0.3-1.3-0.3c-2.8,0-5.4,0.3-7.7,0.8c-2.3,0.5-4.2,1.3-5.6,2.1s-2,1.8-2,2.8c0,0.5,0.3,1,0.9,1.3
		c0.6,0.3,1.8,0.6,3.7,1.2c1.9,0.5,3.6,1.2,5.2,1.9c2.2,1.1,3.7,2.1,4.8,3.2c1.1,1.1,1.5,2.3,1.5,3.7c0,1-0.2,1.9-0.6,2.9
		c-0.4,1-1.1,1.9-1.8,2.7c-0.8,0.7-1.7,1.5-2.8,2c-0.9,0.4-2,0.8-3.4,1.2c-1.3,0.3-2.8,0.6-4.3,0.8c-1.5,0.2-3.1,0.3-4.5,0.3
		c-2.6,0-4.7-0.3-6.3-0.8c-1.6-0.5-2.4-1.4-2.4-2.4c0-0.5,0.3-1.3,0.8-2.3s1.2-1.8,1.9-2.1c0.7-0.3,1.2-0.4,1.8-0.5
		c0.6-0.1,0.9,0,0.9,0.2c0,0,0,0.1-0.1,0.1c-0.1,0-0.1,0.1-0.2,0.1c-0.1,0-0.1,0.1-0.2,0.1c-0.3,0.1-0.6,0.2-0.8,0.3
		c-0.2,0.1-0.4,0.1-0.5,0.2C52.1,45.9,52,46,52,46.1c0,0.3,1.5,0.5,4.7,0.5c2.7,0,4.9-0.1,6.6-0.3s3.3-0.6,4.6-1.2
		C69.2,44.6,70.6,43.9,71.7,42.8z"/>
	<path class="st1" d="M92.2,35.5L91,36.9c1.4,0.1,2.6,0.3,3.7,0.5s2.1,0.4,3,0.7s1.7,0.5,2.4,0.8c2.5,1,3.7,2.5,3.7,4.3
		c0,1.1-0.5,2.2-1.5,3.3s-2.4,2-4,2.9s-3.3,1.5-5.1,2s-3.3,0.7-4.7,0.7c-2.4,0-4.2-0.4-5.6-1.3s-2-2.1-2-3.6c0-1.1,0.4-2.3,1.2-3.8
		s2.1-3.2,3.8-5.4c-1.3-0.1-2.2-0.3-2.7-0.6s-0.8-0.8-0.8-1.3c0-0.4,0.1-0.6,0.3-0.8s0.5-0.3,0.8-0.4s1-0.2,2-0.3s2.2-0.3,3.8-0.5
		c1.7-2.1,3.2-3.7,4.6-4.7s2.8-1.7,4.3-1.8c0.1,0,0.3,0,0.4,0s0.2,0,0.2,0.1s-0.2,0.3-0.5,0.8s-0.9,1.1-1.7,1.9s-1.7,1.9-2.8,3.2
		c2.9-0.4,5.3-0.8,7.2-1.3s3.3-1.1,4.2-1.8s1.4-1.5,1.4-2.3c0-1-0.5-1.8-1.5-2.3s-2.6-0.7-4.7-0.7c-1.2,0-2.5,0.1-4,0.4
		s-2.8,0.5-4.1,0.8S90,27,89.1,27.3s-1.4,0.6-1.4,0.7c0,0,0,0.1,0.1,0.1c0.8,0.3,1.1,0.5,1.1,0.7c0,0.3-1.2,0.7-3.5,1.4
		s-3.9,1.1-4.7,1.1c-0.6,0-0.9-0.3-0.9-0.9c0-0.7,0.6-1.9,1.9-3.7s2.4-2.9,3.4-3.4c0.4-0.2,1.2-0.4,2.5-0.8s2.8-0.7,4.3-1.1
		s3.2-0.6,4.8-0.9s3.1-0.4,4.3-0.4c3,0,5.2,0.5,6.7,1.6s2.2,2.4,2.2,4c0,1.1-0.3,2.1-1,3.1s-1.7,1.9-3.2,2.8
		c-1.5,0.9-3.3,1.7-5.6,2.3S95.4,35.1,92.2,35.5z M89.8,38.5c-0.8,1-1.5,1.8-2.2,2.6s-1.1,1.3-1.4,1.8s-0.4,0.9-0.4,1.4
		c0,0.8,0.4,1.4,1.2,2s1.9,0.9,3.3,0.9c1.3,0,2.8-0.2,4.3-0.7s2.8-1.1,3.8-1.9s1.6-1.5,1.6-2.3c0-0.7-0.4-1.2-1.1-1.7
		s-1.9-0.8-3.5-1.2S91.9,38.8,89.8,38.5z"/>
	<path class="st1" d="M121.2,44.1c-1.4,0-2.4,0.1-3.1,0.1c-1,0-2.4,0-4.2-0.1c-0.4,0.4-0.8,0.9-1.4,1.5s-1,1.1-1.5,1.5
		s-0.9,0.9-1.2,1.2s-0.6,0.6-0.9,0.8c-1.3,1.3-2.1,2.1-2.5,2.5s-0.8,0.7-1.2,1s-0.8,0.5-1.2,0.5c-0.4,0-0.6-0.2-0.6-0.6
		c0-0.4,0.3-1,0.9-1.9s1.2-1.6,2-2.3s1.3-1,1.8-1c0.1,0,0.3,0.1,0.5,0.2l3.3-3.6c-0.4-0.1-1-0.1-1.7-0.1s-1.1-0.1-1.4-0.1
		s-0.4-0.3-0.4-0.6c0-0.5,0.5-1.3,1.6-2.4c0.6-0.6,1.1-1,1.7-1.1s1.5-0.3,3-0.3c-0.9,0.1-1.5,0.3-1.8,0.4s-0.6,0.4-0.6,0.7
		c0.3,0,0.7,0,0.9,0s0.7,0,1.1,0s0.8,0,1,0c1.9-1.9,3.7-3.5,5.2-4.9s3.2-2.7,5-4s3.6-2.4,5.6-3.4c0.4,0.5,0.6,1,0.6,1.6
		c0,0.5-0.1,1-0.4,1.6s-0.9,1.7-1.9,3.4s-1.9,3.4-2.9,5.2c0.3,0,0.6,0,0.8,0s0.4,0,0.7,0c0.7,0,1.1,0,1.2,0s0.2,0.1,0.2,0.4
		c0,0.1-0.1,0.3-0.3,0.5s-0.5,0.6-1,1.2s-0.9,1.1-1.3,1.7l-2.6,0.2c-1.4,2.6-2.1,4-2.1,4.4c0,0.5,0.3,0.7,0.8,0.7
		c0.2,0,1.3-0.5,3.1-1.5l-0.1,0.9c-1,0.7-1.7,1.3-2.2,1.7s-1,0.8-1.4,1s-0.8,0.5-1.1,0.6s-0.6,0.2-1,0.2s-0.8-0.2-1.1-0.5
		s-0.6-0.9-0.6-1.5c0-0.3,0.1-0.7,0.3-1.2s0.4-1,0.6-1.4S120.3,45.8,121.2,44.1z M117.9,40.1l5.7-0.1c0.7-1.1,1.2-2.1,1.6-2.8
		s0.9-1.5,1.4-2.3s0.9-1.5,1.3-2.1s0.8-1.2,1.2-2c-0.8,0.5-1.7,1.1-2.6,1.8c-0.9,0.7-1.9,1.4-3,2.3s-2.1,1.8-2.9,2.5
		S118.8,39.1,117.9,40.1z"/>
	<path class="st1" d="M139.2,45.8V47c-1.3,1.2-2.3,2.2-3.1,2.9s-1.5,1.2-2.2,1.6s-1.4,0.6-2,0.6s-1.2-0.3-1.8-0.8s-1-1.2-1.3-2
		s-0.5-1.7-0.5-2.6c0-0.8,0.2-1.5,0.5-2.1s1-1.4,2-2.4c1.2-1.2,2.3-2.1,3.3-2.7s1.8-1,2.4-1c0.4,0,0.8,0.1,1.1,0.4s0.4,0.7,0.4,1.1
		c0,0.4-0.2,0.9-0.6,1.6s-0.8,1.3-1.3,1.8s-0.9,0.8-1.1,0.8c-0.3,0-0.5-0.2-0.5-0.5c0-0.1,0-0.2,0-0.3s0-0.2,0-0.2
		c0-0.1,0-0.2-0.1-0.2s-0.2,0-0.4,0.1c-1.2,0.8-2,1.4-2.4,1.7s-0.8,0.7-1,1s-0.4,0.7-0.4,1.1c0,0.7,0.2,1.3,0.7,1.7s1,0.7,1.7,0.7
		s1.6-0.3,2.7-0.9S137.8,46.9,139.2,45.8z"/>
	<path class="st1" d="M141.2,42.6c1.8-1.6,3.5-2.8,5.2-3.6s3-1.2,3.9-1.2c0.2,0,0.5,0.1,0.7,0.3s0.4,0.4,0.5,0.7s0.2,0.5,0.2,0.6
		c0,0.2-0.1,0.4-0.2,0.5s-0.5,0.2-0.9,0.4c0.1,0.2,0.2,0.4,0.3,0.7s0.2,0.5,0.3,0.7s0.1,0.3,0.1,0.5c0,0.3-0.3,0.8-0.9,1.6
		s-1,1.3-1.2,1.7s-0.3,0.8-0.3,1.3c0,0.9,0.4,1.3,1.2,1.3s2.1-0.8,3.8-2.3v1.1c-3,3.3-5.1,4.9-6.4,4.9c-0.5,0-0.8-0.1-1-0.4
		s-0.3-0.7-0.3-1.3c0-0.9,0.3-2.3,1-4c-1.7,1.9-3,3.2-3.8,4.1s-1.5,1.2-2.1,1.2c-0.3,0-0.6-0.2-1-0.7s-0.7-1-1-1.7s-0.4-1.4-0.4-2.2
		c0-0.6,0.1-1,0.2-1.4s0.3-0.7,0.6-1.1S140.6,43.3,141.2,42.6z M149.6,40.7c-3,1.4-5.2,2.6-6.5,3.6s-1.9,2-1.9,3
		c0,0.4,0.1,0.7,0.2,0.9s0.3,0.4,0.5,0.4c0.1,0,0.4-0.1,0.7-0.2c1.2-0.7,2.4-1.7,3.4-2.8S148.2,42.7,149.6,40.7z"/>
	<path class="st1" d="M161.8,45.8c-1,1.2-2,2.2-2.8,3s-1.5,1.4-2,1.8s-0.9,0.6-1,0.6c-0.3,0-0.6-0.2-1-0.7s-0.7-1.1-1-1.9
		s-0.4-1.5-0.4-2.3c0-1.1,0.6-2.3,1.7-3.4s2.4-2.1,3.8-2.9s2.5-1.1,3.2-1.1c0.6,0,1.1,0.4,1.7,1.1c0.9-1.9,1.8-3.6,2.6-5
		s1.5-2.6,2-3.3s0.9-1.1,1.2-1.1s0.5,0.1,0.7,0.4s0.3,0.5,0.3,0.9c0,0.6-0.4,1.7-1.3,3.1s-1.8,2.9-2.6,4.3s-1.6,2.8-2.2,4.2
		s-0.9,2.6-0.9,3.8c0,1.1,0.3,1.6,1,1.6c0.4,0,0.9-0.2,1.5-0.7s1.5-1.2,2.7-2.3v1.3c-2.5,3.3-4.5,4.9-5.9,4.9
		c-0.6,0-0.9-0.2-1.2-0.6s-0.4-1-0.4-1.9C161.4,48.3,161.5,47.1,161.8,45.8z M163.1,41.5c-1,0.4-2.3,0.9-3.7,1.7s-2.3,1.3-2.5,1.6
		c-0.3,0.2-0.5,0.7-0.7,1.3s-0.3,1.1-0.3,1.5c0,0.2,0.1,0.4,0.2,0.5s0.3,0.2,0.4,0.2c0.2,0,0.4-0.1,0.6-0.2s0.5-0.4,1-0.8
		s0.8-0.7,0.9-0.8c0.2-0.2,0.6-0.6,1.3-1.1s1.2-1,1.5-1.4s0.6-0.7,0.8-1.1S163,42,163.1,41.5z"/>
	<path class="st1" d="M171.6,46.4v0.4c0,0.7,0.2,1.2,0.5,1.6s0.8,0.6,1.3,0.6c0.6,0,1.2-0.1,1.8-0.4s1.2-0.6,1.8-1.1s1.4-1,2.2-1.8
		v1.1c-1.3,1.6-2.6,2.8-3.7,3.7s-2.3,1.3-3.5,1.3c-1,0-1.9-0.4-2.5-1.2s-0.9-1.9-0.9-3.3c0-1.2,0.3-2.3,0.9-3.3s1.5-2.1,2.8-3.2
		c0.9-0.8,1.8-1.3,2.7-1.7s1.7-0.6,2.4-0.6c0.6,0,1,0.1,1.3,0.4s0.5,0.6,0.5,1.1c0,0.7-0.3,1.5-0.8,2.2s-1.4,1.5-2.5,2.2
		S173.3,45.7,171.6,46.4z M171.8,45.3c1.1-0.4,2-0.9,2.7-1.5s1.3-1.2,1.7-1.7s0.5-1,0.5-1.2c0-0.3-0.1-0.4-0.4-0.4
		c-0.2,0-0.6,0.1-1,0.4s-1,0.6-1.4,1.1s-0.9,0.9-1.3,1.5S171.9,44.6,171.8,45.3z"/>
	<path class="st1" d="M187.3,48.2c1.6-1.4,3-2.7,4.2-3.7s2.1-1.9,2.7-2.5s1.2-1.1,1.7-1.5s0.8-0.6,1-0.6c0.3,0,0.5,0.3,0.8,0.8
		s0.4,1,0.4,1.4c0,0.2-0.4,0.7-1.1,1.6s-1.3,1.5-1.7,2s-0.6,1-0.6,1.5c0,0.3,0.1,0.6,0.3,0.8s0.5,0.3,0.8,0.3s0.7-0.2,1.2-0.5
		s1.2-1,2.2-1.9V47c-1,1-1.9,1.8-2.8,2.5s-1.6,1.2-2.2,1.6s-1.1,0.5-1.5,0.5s-0.7-0.1-0.9-0.4s-0.4-0.6-0.4-1s0.1-0.8,0.2-1.2
		s0.4-0.9,0.7-1.5s0.7-1.2,1.2-2s0.9-1.5,1.3-2.2c-1.2,1-2.3,1.9-3.2,2.8s-1.7,1.7-2.3,2.4s-1,1.2-1.4,1.6c-0.7,0.7-1.3,1.1-1.8,1.1
		c-0.6,0-0.9-0.4-0.9-1.3c0-0.4,0.2-1,0.7-1.9s1.1-2.1,2-3.5c0.1-0.1,0.1-0.2,0.1-0.4s-0.1-0.4-0.4-0.4c-0.3,0-0.6,0.2-1.1,0.7
		s-1.4,1.5-2.8,3c-0.4,0.4-0.8,1-1.3,1.7s-0.8,1.2-1,1.4s-0.4,0.4-0.6,0.4c-0.4,0-0.8-0.4-1.2-1.1s-0.5-1.6-0.5-2.6
		c0-0.7,0.1-1.4,0.4-1.9s0.6-1.2,1.1-2c0.8-1.1,1.4-1.9,1.9-2.4s1-0.7,1.6-0.7c0.3,0,0.6,0.1,0.9,0.2s0.4,0.3,0.4,0.6
		c0,0.2-0.2,0.7-0.6,1.2s-1,1.1-1.6,1.7c-0.4,0.3-0.7,0.8-1,1.3s-0.5,0.9-0.5,1.1c0,0.3,0.1,0.5,0.4,0.5c0.2,0,0.7-0.4,1.5-1.2
		s1.7-1.7,2.7-2.7s1.9-1.8,2.7-2.4s1.5-1,2.1-1c0.4,0,0.6,0.1,0.9,0.4s0.3,0.6,0.3,1c0,0.3-0.2,0.7-0.5,1.4s-0.9,1.5-1.5,2.5
		S188.4,46.8,187.3,48.2z"/>
	<path class="st1" d="M207.3,46.5l-3.1,2.7c-1.5,1.3-2.5,2-3,2s-0.9-0.5-1.4-1.6s-0.8-2-0.8-2.8c0-0.7,0.1-1.2,0.3-1.7
		s0.6-1.1,1.1-1.8c0.7-1,1.4-1.8,2.1-2.5s1.2-1.2,1.7-1.6s0.9-0.6,1.1-0.6c0.3,0,0.6,0.2,0.9,0.5s0.4,0.7,0.4,1
		c0,0.2-0.2,0.6-0.5,1.1s-0.8,1.1-1.5,1.9s-1.7,1.7-2.9,2.7l-0.3,1c-0.1,0.2-0.1,0.4-0.1,0.5c0,0.3,0.2,0.5,0.5,0.5s1.1-0.4,2.3-1.2
		s2.5-2,3.9-3.4c0.6-0.6,1-1,1.4-1.5s0.7-0.8,1-1.2s0.5-0.6,0.7-0.8s0.4-0.3,0.5-0.3c0.3,0,0.5,0.1,0.7,0.4s0.2,0.7,0.2,1.2
		c0,0.3-0.1,0.7-0.4,1.2s-0.8,1.3-1.6,2.4s-1.5,2.3-2.3,3.6s-1.5,2.6-2.3,4.1c0,0,0.4-0.4,1.1-1.1s1.4-1.4,2.2-2.1s1.4-1.3,1.9-1.7
		s1.1-1,1.8-1.5v1.2c-1.6,1.7-3,3.3-4.3,4.8s-2.3,2.7-3,3.7s-1.1,1.4-1.2,1.6c-0.3,0.4-0.6,0.8-0.9,1.2s-0.5,0.6-0.6,0.8
		s-0.3,0.3-0.4,0.3c-0.2,0-0.5-0.2-0.7-0.7s-0.3-0.9-0.3-1.3c0-0.3,0.1-0.6,0.2-0.9C202.4,54.5,204.3,51.2,207.3,46.5z"/>
</g>
</svg>
